<svg xmlns="http://www.w3.org/2000/svg" fill="none" height="34" viewBox="0 0 36 34" width="36"><g fill="#FFF"><path d="M.94 4.667c.128.084.296.059.464.05a.731.731 0 0 0-.465-.05z"/><path d="M1.404 4.725v-.008h-.01zM9.01 15.983c0-.176-.07-.327-.217-.487-.02.151.108.32.217.487z"/><path d="M35.07 15.471c.149-.512.801-.89.93-1.353-.089-.075-.791-.756-1.572-1.386-.762-.63-1.593-1.201-1.721-1.252.059-.075.108-.16.148-.168-.07-.008-.208.135-.227.236l.128.075c-.089.219-.109.009-.237.202-.119-.05 0-.227.079-.387-.099.135-.277.227-.198.345-.138.1-.119-.084-.277.042-.06.126-.06.328-.237.42l-.02-.017c-.356.235-.267.563-.643.781v-.05c-.148.059-.277.31-.524.445.08-.033.188-.033.089.084-.287.168-.386.353-.623.454l-.08.218c-.415.37-1.503 1.311-2.63 2.453-1.127 1.143-2.067 2.403-2.433 2.916l.01-.05c-.336.47-.762 1.108-1.177 1.822.03-.235-.02-.411.06-.596l-.13-.202c-.01-.504-.118-1.764-.316-3.033s-.504-2.553-.643-3.066l.03.034c-.208-.79-.564-2.008-1.088-3.201-.494-1.202-1.226-2.37-1.81-3.092-.059-.286-.316-.596-.465-.857.06.16-.049.151-.118.042-.564-.722-.109-.008-.742-.697A26.233 26.233 0 0 0 16.3 4.465c-1.019-.848-2.186-1.52-2.601-1.797-.574-.118-1.128-.513-1.672-.622l.07-.009c-.277-.084-1.167-.453-2.097-.756-.485-.134-.96-.269-1.365-.37a11.927 11.927 0 0 0-.91-.167l.09.042C7.2.752 7.308.626 6.853.5c.03.176-.495.202-.692.193l.01-.033c-.297 0-.98.092-1.454.092l.03-.092C4.331.752 3.58.676 3.293.718 2.63.693 1.573.61.712.878L.08.718 0 .76s-.02.824.168 1.697c.168.874.524 1.807 1.039 2.067l.01.093.168-.042c.207.008.287-.118.287-.017l-.277.033c.207-.008.079.068.01.126a.729.729 0 0 1 .237.009c.04-.042-.03-.034-.07-.042.1-.05.238-.168.376-.135.218-.016.05.143.287.126 1.296-.067 2.542.06 3.838.227.02.042-.01.034-.05.05.396 0 .732.093 1.098.118.089.06.099.118.109.16-.02-.05.465.059.95.168.237.067.474.151.662.202.178.067.306.109.306.117l.1-.143c.365.135.02.219.365.303.248-.168.534.235.702.185-.01.016.139.092.09.15.118-.092.177.051.296.068.06-.017 0-.042-.01-.092l.257.067c.06.084.03.16-.069.117.139.084.396.244.722.446.297.227.692.453 1.029.747.712.538 1.295 1.168 1.552 1.37.03-.118-.168-.219-.079-.37.198.067.149.193.287.193-.158.177.198.311.07.555l.158-.042-.02.11c.613.495.198.083.554.63.237.302.544.352.583.57-.02-.025.02-.142.11-.067-.11.068.226.194.128.286.069.076.217.361.326.202-.05.075.06.344-.099.218.04.084.06.185.129.227l-.01-.126c.168.285.118.487.376.622l.01-.135c.108.168.187.32.04.445l-.13-.168c.13.294.218.47.416.698L17 12.69c.168.126.416.622.683 1.126.237.512.484 1.017.623 1.168l.099-.177.178.26c-.01-.033-.475-.058-.436-.092.08.294.327 1.219.475 2.16.158.94.247 1.907.218 2.192-.06.235-.218.05-.238.05.07.278.159.118.159.353-.02.068-.11-.008-.129-.042.02.101-.02.202.05.21.04-.134.217-.084.326-.15l.01.31-.109-.008c0 .067.307.168.267.479v.117c-.722-.806-1.701-1.957-2.008-2.243l.03.076c-.435-.336-.237-.378-.465-.723-.119.143-.514-.134-.643-.252l.04-.017c-.198-.176-.732-.529-1.029-.84l.1-.042c-.327-.21-.733-.74-.9-.932-.347-.47-.772-1.252-1.385-1.781l-.07-.538-.069-.042s-3.62 1.193-3.61 2.394l-.099.042.149.151c.118.219.296.244.197.286l-.207-.269c.138.21-.03.101-.139.06.06.083.11.167.139.251.069.017.01-.05.01-.092.118.084.326.184.385.336.159.201-.138.1.05.336.95 1.26 1.86 2.495 2.957 3.696-.01.05-.04.017-.089-.008.366.336.633.672.98.974.039.118.009.177 0 .227.009-.05.444.395.88.849.217.227.434.462.603.638.168.177.276.303.276.311l.179-.084c.336.353-.08.227.267.521.336-.025.484.554.712.588-.02.008.128.168.05.21.167-.034.187.143.306.219.069.016.01-.05.02-.101l.257.201c.05.118 0 .185-.11.101.14.16.406.454.733.823.089.093.168.194.267.286l.494.521c.396.403.801.823 1.217 1.243 1.661 1.664 3.372 3.319 3.985 3.865-.178-.32-.553-.571-.702-.958.307.16.475.496.594.48.178.512.702.755 1.048 1.427l.04-.16.197.311c.475.395.594.446.673.513.05-.302.01.084.297-1.092.237-1.143.217-1.94.405-2.428-.02.092-.138.193-.109-.126.11.118.1-.832.228-.798.05-.278.267-1.1.06-.992.088-.067.325-.739.266-.252.08-.227.168-.437.188-.63l-.129.26c.218-.797.475-1.142.544-1.688l-.168.227c.168-.429.297-.781.534-.89l-.138.47c.119-.294.217-.521.316-.756.05-.135.08-.26.11-.412l-.06.1c.01-.21.227-.78.475-1.352.257-.563.534-1.125.553-1.327l-.227.076.099-.32c-.03.034.287.336.237.336a20.02 20.02 0 0 1 1.573-1.974c.722-.798 1.602-1.563 1.909-1.773.267-.142.197.101.207.11.228-.26.01-.185.247-.378.08-.042.07.075.05.117.089-.1.217-.151.178-.193-.158.076-.237-.067-.366-.092l.307-.252.069.075c.07-.059-.05-.32.287-.554.534-.412 1.048-.941 1.562-1.429.04.042-.03.177-.109.294.07-.058.159-.176.258-.21-.297.068.059-.243-.07-.176zm-12.402 8.838c-.05.008-.168-.1-.306-.244.118.017.227.042.336.06 0 .033 0 .058.01.092.01.025.01.059.01.092 0 .009-.02.009-.05 0z"/></g></svg>